<svg width="31" height="30" viewBox="0 0 31 30" fill="none" xmlns="http://www.w3.org/2000/svg">
<path fill-rule="evenodd" clip-rule="evenodd" d="M15.12 28.5C22.6354 28.5 28.728 22.4557 28.728 15C28.728 7.54425 22.6354 1.5 15.12 1.5C7.6046 1.5 1.512 7.54425 1.512 15C1.512 22.4557 7.6046 28.5 15.12 28.5ZM15.12 30C23.4708 30 30.24 23.2845 30.24 15C30.24 6.7155 23.4708 0 15.12 0C6.76922 0 0 6.7155 0 15C0 23.2845 6.76922 30 15.12 30Z" fill="white"/>
<path d="M6.04785 23.7221C6.04785 22.9473 6.63148 22.2926 7.40865 22.2071C13.2412 21.5666 17.025 21.6243 22.8447 22.2213C23.1353 22.2516 23.4107 22.3652 23.6373 22.5482C23.8639 22.7312 24.0319 22.9758 24.1208 23.2519C24.2096 23.5281 24.2155 23.824 24.1376 24.1034C24.0597 24.3828 23.9015 24.6337 23.6823 24.8253C16.814 30.7646 12.8889 30.6828 6.53169 24.8313C6.22173 24.5463 6.04785 24.1413 6.04785 23.7228V23.7221Z" fill="white"/>
<path fill-rule="evenodd" clip-rule="evenodd" d="M22.7669 22.9667C16.9934 22.3742 13.264 22.3187 7.4912 22.9525C7.30118 22.9744 7.12599 23.0652 6.9992 23.2073C6.8724 23.3494 6.8029 23.5329 6.804 23.7227C6.804 23.9372 6.89396 24.1405 7.04592 24.2815C10.1969 27.181 12.5844 28.4912 14.9181 28.4995C17.2602 28.5077 19.7762 27.208 23.1858 24.2605C23.2941 24.1648 23.3721 24.04 23.4102 23.9012C23.4484 23.7624 23.4451 23.6156 23.4007 23.4787C23.3563 23.3417 23.2728 23.2205 23.1603 23.1297C23.0478 23.039 22.9111 22.9826 22.7669 22.9675V22.9667ZM7.32564 21.4615C13.2194 20.8142 17.0584 20.8727 22.9234 21.475C23.3606 21.5202 23.775 21.691 24.1159 21.9663C24.4568 22.2416 24.7094 22.6096 24.8427 23.0251C24.976 23.4407 24.9844 23.8858 24.8666 24.3059C24.7489 24.7261 24.5103 25.103 24.1799 25.3907C20.7212 28.3817 17.8408 30.0107 14.9136 29.9995C11.9781 29.989 9.22471 28.3322 6.01851 25.381C5.78896 25.1688 5.60596 24.912 5.48095 24.6266C5.35595 24.3411 5.29162 24.0332 5.292 23.722C5.29089 23.1628 5.49778 22.6229 5.87303 22.2056C6.24828 21.7884 6.76551 21.5231 7.32564 21.4607V21.4615Z" fill="white"/>
<path d="M21.1683 11.9998C21.1683 13.5911 20.5311 15.1172 19.3968 16.2424C18.2626 17.3676 16.7243 17.9998 15.1203 17.9998C13.5162 17.9998 11.9779 17.3676 10.8437 16.2424C9.70946 15.1172 9.07227 13.5911 9.07227 11.9998C9.07227 10.4085 9.70946 8.88233 10.8437 7.75711C11.9779 6.6319 13.5162 5.99976 15.1203 5.99976C16.7243 5.99976 18.2626 6.6319 19.3968 7.75711C20.5311 8.88233 21.1683 10.4085 21.1683 11.9998Z" fill="white"/>
<path fill-rule="evenodd" clip-rule="evenodd" d="M15.1203 16.4998C16.3233 16.4998 17.477 16.0257 18.3277 15.1817C19.1784 14.3378 19.6563 13.1932 19.6563 11.9998C19.6563 10.8063 19.1784 9.66169 18.3277 8.81778C17.477 7.97386 16.3233 7.49976 15.1203 7.49976C13.9172 7.49976 12.7635 7.97386 11.9128 8.81778C11.0622 9.66169 10.5843 10.8063 10.5843 11.9998C10.5843 13.1932 11.0622 14.3378 11.9128 15.1817C12.7635 16.0257 13.9172 16.4998 15.1203 16.4998ZM15.1203 17.9998C16.7243 17.9998 18.2626 17.3676 19.3968 16.2424C20.5311 15.1172 21.1683 13.5911 21.1683 11.9998C21.1683 10.4085 20.5311 8.88233 19.3968 7.75711C18.2626 6.6319 16.7243 5.99976 15.1203 5.99976C13.5162 5.99976 11.9779 6.6319 10.8437 7.75711C9.70946 8.88233 9.07227 10.4085 9.07227 11.9998C9.07227 13.5911 9.70946 15.1172 10.8437 16.2424C11.9779 17.3676 13.5162 17.9998 15.1203 17.9998Z" fill="white"/>
</svg>
