<svg width="19" height="17" viewBox="0 0 19 17" fill="none" xmlns="http://www.w3.org/2000/svg">
<path d="M5.34552 6.5304C4.68877 6.5304 4.15817 7.061 4.15817 7.71775C4.15817 8.3745 4.68877 8.9051 5.34552 8.9051C6.00227 8.9051 6.53287 8.3745 6.53287 7.71775C6.53287 7.061 6.00227 6.5304 5.34552 6.5304ZM9.50123 6.5304C8.84448 6.5304 8.31389 7.061 8.31389 7.71775C8.31389 8.3745 8.84448 8.9051 9.50123 8.9051C10.158 8.9051 10.6886 8.3745 10.6886 7.71775C10.6886 7.061 10.158 6.5304 9.50123 6.5304ZM13.6569 6.5304C13.0002 6.5304 12.4696 7.061 12.4696 7.71775C12.4696 8.3745 13.0002 8.9051 13.6569 8.9051C14.3137 8.9051 14.8443 8.3745 14.8443 7.71775C14.8443 7.061 14.3137 6.5304 13.6569 6.5304ZM9.50123 0C4.25465 0 0.00246256 3.45444 0.00246256 7.71775C0.00246256 9.48393 0.740843 11.1017 1.96529 12.4041C1.41244 13.866 0.262195 15.1053 0.243642 15.1201C-0.00124789 15.3798 -0.0680361 15.7583 0.0729612 16.0848C0.213959 16.4114 0.536768 16.6228 0.892972 16.6228C3.1749 16.6228 4.97447 15.6693 6.05422 14.9049C7.12654 15.2426 8.2842 15.4355 9.50123 15.4355C14.7478 15.4355 19 11.9811 19 7.71775C19 3.45444 14.7478 0 9.50123 0ZM9.50123 13.6545C8.51054 13.6545 7.53098 13.5024 6.59223 13.2055L5.74996 12.9384L5.02642 13.4504C4.49583 13.8252 3.76858 14.2444 2.89291 14.5264C3.16377 14.0775 3.42721 13.5729 3.63129 13.0348L4.0246 11.9922L3.26024 11.1833C2.58865 10.4672 1.78348 9.28356 1.78348 7.71775C1.78348 4.44513 5.24534 1.78102 9.50123 1.78102C13.7571 1.78102 17.219 4.44513 17.219 7.71775C17.219 10.9904 13.7571 13.6545 9.50123 13.6545Z" fill="black"/>
</svg>
